<svg version="1.0" xmlns="http://www.w3.org/2000/svg"
  width="599.000000pt" height="628.000000pt" viewBox="0 0 599.000000 628.000000"
  preserveAspectRatio="xMidYMid meet">

  <g transform="translate(0.000000,628.000000) scale(0.100000,-0.100000)"
    fill="#000" stroke="none">
    <path d="M0 6248 c0 -36 4 -35 14 5 4 16 2 27 -4 27 -5 0 -10 -14 -10 -32z" />
    <path
      d="M360 6247 c59 -29 74 -32 160 -32 85 0 102 3 155 29 52 26 57 30 35
34 -14 2 -56 -2 -94 -9 -54 -10 -85 -10 -150 -1 -45 7 -102 12 -127 11 l-44
-1 65 -31z" />
    <path
      d="M997 6220 c-29 -62 -85 -112 -140 -126 -32 -8 -35 10 -12 76 40 114
4 96 -61 -29 -48 -94 -66 -118 -107 -145 -40 -27 -60 -8 -52 53 l6 46 -18 -25
c-85 -117 -128 -153 -178 -148 -27 3 -30 6 -29 38 1 19 5 54 9 78 12 66 -11
53 -47 -27 -35 -79 -60 -97 -124 -85 -76 13 -89 51 -59 164 28 104 9 104 -35
0 -43 -103 -57 -114 -114 -85 -15 8 -30 15 -32 15 -2 0 -4 -35 -3 -77 1 -77 1
-78 15 -45 12 27 19 33 41 30 34 -4 46 -42 37 -117 -12 -109 -7 -189 16 -236
27 -55 108 -131 229 -213 89 -62 93 -63 112 -46 19 17 19 17 -1 31 -26 18 -26
58 0 148 34 119 21 144 -25 48 -53 -113 -94 -144 -116 -86 -9 25 -6 56 18 153
5 22 0 19 -46 -23 -29 -28 -59 -47 -69 -45 -25 5 -26 56 -2 112 21 50 27 116
10 116 -5 0 -22 -24 -37 -52 -24 -47 -28 -50 -31 -28 -2 13 -1 57 3 96 l7 72
151 7 c236 11 296 30 637 200 102 50 232 112 288 136 57 24 108 52 113 62 9
15 3 17 -63 17 -60 0 -80 -4 -108 -23 -19 -13 -47 -27 -63 -31 -25 -6 -28 -3
-33 24 -5 24 -11 30 -33 29 -22 0 -30 -10 -54 -59z" />
    <path
      d="M3144 6261 c-42 -26 -67 -64 -95 -144 l-24 -67 -76 0 c-193 0 -470
-35 -680 -86 -57 -14 -105 -21 -107 -16 -1 5 -26 49 -55 97 -78 133 -156 181
-261 161 -48 -9 -109 -57 -131 -102 -25 -51 -24 -166 3 -257 l20 -68 -62 -28
c-142 -64 -360 -201 -536 -335 -130 -99 -412 -379 -510 -506 -365 -476 -568
-986 -621 -1564 -15 -162 -6 -533 16 -671 63 -400 172 -718 356 -1041 331
-581 870 -1053 1479 -1295 934 -370 1967 -262 2800 294 296 197 584 482 792
782 224 324 385 704 462 1090 47 239 51 288 51 580 0 293 -6 360 -51 585 -232
1163 -1167 2091 -2340 2321 l-121 24 4 65 c6 85 -22 143 -87 177 -58 31 -179
33 -226 4z m149 -171 c-2 -14 -12 -113 -23 -220 -10 -107 -19 -227 -20 -267 0
-39 -3 -74 -7 -76 -5 -2 -43 -2 -87 1 l-78 4 7 55 c8 66 72 326 110 446 l27
88 37 -3 c32 -3 36 -6 34 -28z m-1336 -118 c69 -107 234 -466 249 -540 5 -26
3 -28 -43 -39 -26 -6 -63 -15 -81 -21 -31 -10 -33 -9 -51 26 -45 91 -171 530
-171 598 0 74 41 64 97 -24z m1033 -94 c-1 -7 -13 -65 -28 -128 l-28 -115
-106 -7 c-120 -7 -305 -32 -388 -53 -118 -28 -108 -29 -125 12 -9 20 -12 40
-8 44 5 4 37 13 73 21 l65 15 0 84 0 84 65 12 c95 18 137 16 149 -4 5 -10 12
-44 16 -75 l7 -58 42 0 c22 0 65 3 94 6 l52 7 0 73 c0 59 3 75 18 83 25 15
102 14 102 -1z m533 -45 c5 -3 7 -41 5 -85 l-3 -81 75 -18 c41 -10 80 -18 86
-19 6 0 16 19 23 43 24 84 32 97 60 97 14 0 61 -12 103 -26 73 -24 78 -28 78
-54 0 -15 -7 -47 -15 -70 -21 -61 -20 -65 30 -84 25 -10 45 -20 45 -23 0 -3
-10 -21 -21 -40 -15 -24 -26 -32 -38 -28 -135 56 -322 111 -495 145 l-58 12 6
76 c4 43 9 99 12 125 l6 49 47 -7 c25 -4 50 -9 54 -12z m-1693 -326 c19 -61
35 -115 35 -119 0 -4 -49 -35 -110 -69 -561 -310 -977 -797 -1185 -1384 -268
-759 -164 -1590 283 -2260 320 -480 813 -849 1362 -1019 420 -130 886 -152
1315 -60 684 145 1296 586 1661 1196 414 691 469 1548 148 2297 -193 449 -534
855 -943 1121 -53 35 -96 68 -96 74 0 6 10 23 23 38 l22 28 47 -30 c27 -17 50
-30 53 -30 2 0 23 25 46 55 28 37 48 55 63 55 20 0 140 -80 158 -105 13 -18 9
-30 -32 -85 -22 -29 -40 -56 -40 -60 0 -3 31 -31 69 -62 l68 -57 49 50 c26 27
57 49 68 49 27 0 146 -118 146 -145 0 -12 -22 -42 -50 -70 l-49 -49 56 -65
c32 -36 58 -68 59 -69 1 -2 29 15 62 38 40 29 65 40 78 36 18 -6 102 -112 115
-145 10 -25 -6 -46 -61 -81 -27 -18 -50 -36 -50 -40 0 -5 15 -32 34 -62 64
-99 52 -94 130 -57 l69 32 20 -24 c32 -40 78 -139 75 -162 -2 -15 -21 -32 -60
-52 -31 -17 -59 -33 -62 -36 -6 -5 50 -148 63 -161 3 -3 33 2 66 13 33 10 68
19 77 19 16 0 39 -48 68 -147 17 -55 7 -67 -74 -92 -33 -10 -61 -23 -61 -27 0
-5 9 -46 19 -92 12 -52 24 -81 31 -78 6 2 41 7 78 11 79 9 78 9 97 -119 14
-95 10 -100 -81 -111 -32 -4 -61 -10 -64 -14 -2 -5 -1 -47 2 -94 l6 -87 71 0
c43 0 77 -5 84 -12 16 -16 16 -190 0 -206 -7 -7 -41 -12 -84 -12 l-71 0 -7
-86 c-3 -47 -4 -89 -1 -94 2 -4 34 -11 69 -15 36 -3 70 -13 76 -20 9 -11 9
-33 -1 -92 -20 -127 -19 -126 -87 -118 -31 3 -67 9 -78 12 -20 4 -23 -3 -39
-73 -10 -43 -19 -84 -22 -91 -3 -7 18 -18 54 -29 32 -10 67 -26 78 -36 19 -18
19 -19 -10 -103 -16 -47 -35 -91 -43 -97 -10 -9 -30 -6 -83 11 -39 13 -72 21
-73 19 -12 -16 -65 -163 -60 -167 3 -3 31 -19 62 -36 39 -20 58 -37 60 -52 2
-12 -15 -56 -38 -97 -48 -87 -66 -94 -135 -51 -40 24 -75 32 -75 17 0 -5 -18
-37 -40 -71 -22 -34 -40 -64 -40 -66 0 -2 24 -23 54 -45 30 -23 57 -47 60 -55
9 -23 -101 -175 -127 -175 -7 0 -38 18 -67 40 -30 22 -57 39 -62 38 -4 -2 -32
-32 -62 -68 l-55 -65 51 -52 c41 -42 49 -56 45 -75 -8 -30 -119 -138 -142
-138 -9 0 -40 22 -69 50 l-53 50 -54 -46 c-90 -76 -86 -64 -39 -132 25 -35 40
-67 37 -76 -9 -22 -139 -115 -163 -116 -14 0 -33 18 -60 55 -21 30 -43 55 -48
55 -8 0 -118 -63 -144 -83 -10 -8 -6 -22 18 -64 45 -79 40 -90 -58 -141 -46
-24 -89 -41 -97 -38 -7 2 -28 32 -45 65 -18 34 -37 61 -42 61 -22 0 -158 -64
-158 -75 0 -6 9 -37 19 -68 19 -53 19 -58 3 -76 -23 -26 -169 -68 -190 -55 -9
6 -25 37 -35 70 -11 32 -21 61 -23 63 -2 2 -42 -5 -89 -15 l-86 -19 6 -81 c8
-95 15 -88 -110 -106 -64 -9 -88 -9 -97 0 -6 6 -16 42 -22 79 l-11 68 -65 -3
c-123 -5 -119 -2 -122 -90 l-3 -77 -110 0 -110 0 -3 77 -3 76 -37 6 c-20 3
-62 7 -92 8 l-54 3 -12 -68 c-6 -37 -16 -73 -22 -79 -8 -8 -34 -8 -97 1 -126
17 -118 10 -110 105 l6 81 -86 19 c-47 10 -87 17 -89 15 -2 -2 -12 -31 -23
-63 -10 -33 -26 -64 -35 -70 -21 -13 -178 34 -192 57 -7 11 -6 31 3 64 27 95
30 86 -53 121 -42 18 -80 32 -86 32 -5 0 -23 -27 -40 -60 -17 -34 -37 -63 -45
-66 -7 -3 -51 14 -97 38 -96 50 -102 63 -64 133 14 25 26 52 26 59 0 12 -129
96 -147 96 -4 0 -26 -25 -47 -55 -27 -37 -46 -55 -60 -55 -24 1 -154 94 -163
116 -3 9 12 41 37 76 47 67 51 56 -39 132 l-54 45 -54 -49 c-30 -28 -61 -50
-69 -50 -22 0 -144 124 -144 146 0 11 22 42 50 69 l49 48 -29 36 c-16 20 -43
52 -59 71 l-29 34 -61 -43 c-38 -26 -68 -40 -79 -37 -16 6 -80 89 -111 145
-15 27 -18 24 74 96 l38 30 -42 64 c-22 35 -41 68 -41 73 0 15 -30 9 -80 -17
-76 -38 -83 -36 -130 52 -22 42 -40 86 -38 97 2 14 22 31 60 51 31 17 59 33
63 36 5 6 -50 147 -64 161 -4 4 -37 -2 -73 -14 -84 -27 -89 -23 -124 88 -31
101 -30 104 63 135 57 19 64 24 59 43 -4 11 -14 52 -23 89 -14 61 -18 68 -37
64 -11 -3 -47 -9 -78 -12 -68 -9 -70 -7 -88 119 -14 95 -10 102 82 112 32 4
61 10 63 15 3 4 2 46 -1 93 l-7 86 -71 0 c-43 0 -77 5 -84 12 -8 8 -12 46 -12
103 0 57 4 95 12 103 7 7 41 12 84 12 l71 0 6 87 c3 47 4 89 2 94 -3 4 -32 10
-64 14 -92 11 -95 15 -81 115 18 123 19 124 96 116 35 -4 70 -9 77 -12 9 -3
18 18 31 73 11 43 21 83 23 89 3 7 -22 21 -61 34 -93 31 -95 35 -63 135 36
108 42 112 115 91 31 -10 63 -18 71 -19 14 -2 85 152 75 162 -3 3 -31 19 -62
36 -39 20 -58 37 -60 52 -3 24 57 152 82 172 13 11 26 8 82 -18 36 -17 69 -29
73 -27 4 3 27 37 50 77 37 62 41 74 28 83 -8 6 -36 26 -61 44 -39 27 -46 36
-40 54 11 35 96 147 117 154 13 4 38 -7 79 -36 33 -23 63 -38 67 -34 4 5 30
36 59 70 l51 61 -49 48 c-28 27 -50 58 -50 69 0 27 118 146 145 146 12 0 42
-22 69 -49 l49 -50 68 57 c38 31 69 58 69 60 0 2 -18 30 -41 62 -27 39 -39 64
-34 77 8 25 135 113 162 113 16 0 33 -16 60 -55 21 -30 41 -54 45 -55 4 0 41
21 82 46 l76 45 -31 61 c-18 36 -28 69 -25 82 3 14 30 34 78 58 40 20 78 37
83 37 6 0 26 -50 45 -112z m2453 11 c-1 -15 -19 -51 -41 -80 -21 -29 -68 -100
-102 -158 -109 -181 -123 -192 -175 -147 l-27 23 34 55 c51 85 184 272 217
308 24 26 37 32 63 29 29 -3 33 -6 31 -30z m-1082 -79 c28 -14 53 -81 57 -153
l4 -69 -38 6 c-22 4 -73 9 -114 12 -121 10 -123 11 -117 49 8 49 79 159 108
167 26 8 74 2 100 -12z m-887 -120 c26 -12 52 -60 43 -81 -2 -7 -27 -21 -53
-30 -30 -10 -76 -41 -117 -78 -55 -49 -74 -60 -102 -60 -19 0 -35 2 -35 4 0 3
-5 39 -11 81 -10 74 -9 78 13 102 24 26 66 51 108 64 39 11 126 10 154 -2z
m288 -200 c224 -62 356 -122 404 -184 46 -61 44 -119 -10 -238 -23 -51 -24
-58 -9 -55 10 2 38 40 64 88 26 46 52 86 58 88 7 2 11 -11 11 -37 0 -55 -80
-209 -143 -275 -26 -28 -50 -46 -53 -41 -18 39 -25 40 -52 6 -85 -108 -95
-115 -163 -119 -82 -4 -158 12 -394 82 -312 94 -335 107 -337 188 -1 64 10
104 50 183 74 149 166 269 238 311 84 49 165 50 336 3z m639 -10 c56 -12 130
-32 165 -45 81 -30 240 -110 249 -124 20 -32 -26 -23 -185 38 -121 46 -218 67
-378 81 -117 11 -152 21 -152 47 0 39 118 40 301 3z m713 -30 c33 -26 56 -69
56 -105 0 -35 -38 -114 -55 -114 -23 0 -165 122 -165 142 0 6 12 26 26 45 42
56 93 67 138 32z m-1919 -119 c3 -5 -13 -43 -35 -85 l-42 -75 -49 0 c-46 0
-49 2 -49 26 0 30 13 56 52 107 26 33 35 37 73 37 24 0 47 -4 50 -10z m1753
-94 c33 -17 73 -59 101 -106 26 -43 28 -65 5 -52 -28 16 -125 116 -140 145
-16 31 -7 34 34 13z m-503 -103 c28 -42 34 -107 12 -137 -11 -15 -18 -16 -53
-7 -60 17 -78 35 -70 68 4 15 12 54 18 85 l11 57 28 -15 c16 -8 40 -31 54 -51z
m939 -71 c144 -112 149 -129 38 -139 l-61 -6 -60 93 c-59 90 -68 110 -54 123
16 17 44 2 137 -71z m-2817 36 c46 -43 14 -118 -51 -118 -40 0 -66 26 -66 67
0 65 69 96 117 51z m277 -110 c-4 -7 -21 -31 -39 -53 -17 -22 -57 -87 -90
-145 -32 -58 -71 -121 -86 -140 -15 -19 -30 -49 -34 -67 -4 -22 -13 -33 -31
-37 -30 -8 -30 -18 1 -64 22 -32 23 -37 9 -40 -9 -2 -21 1 -27 7 -14 14 -57
15 -57 1 0 -13 18 -27 64 -53 75 -42 45 -63 -44 -32 -24 8 -46 13 -48 10 -3
-3 18 -27 46 -54 29 -27 48 -52 43 -55 -5 -4 -33 3 -61 14 -76 30 -79 25 -20
-35 29 -30 51 -57 48 -60 -3 -3 -35 6 -72 19 -57 22 -68 23 -73 10 -7 -19 -14
-14 102 -64 126 -53 125 -52 113 -96 -10 -36 -3 -86 15 -114 7 -13 1 -28 -26
-66 -37 -51 -97 -172 -97 -194 0 -10 -14 -11 -62 -4 -35 4 -92 8 -128 9 -52 0
-65 -3 -68 -16 -4 -22 25 -29 136 -29 91 0 92 0 92 -25 l0 -25 -120 0 c-95 0
-120 -3 -120 -14 0 -17 44 -26 135 -26 39 0 75 -3 78 -6 3 -4 2 -15 -4 -25 -8
-17 -22 -19 -105 -19 -86 0 -95 -2 -92 -17 3 -15 17 -18 91 -21 78 -2 87 -5
87 -22 0 -29 -29 -39 -98 -33 -42 4 -66 2 -77 -7 -31 -26 -15 -32 75 -28 l90
3 0 -27 c0 -21 -6 -28 -30 -33 -17 -4 -47 -4 -68 0 -45 7 -79 -12 -69 -40 6
-14 14 -16 45 -9 66 14 126 11 130 -8 2 -12 -9 -19 -48 -27 -28 -6 -67 -11
-85 -11 -31 0 -35 -3 -35 -25 0 -30 23 -32 111 -10 69 18 99 9 99 -30 0 -21 5
-25 33 -26 61 -3 108 3 135 17 15 8 36 14 48 14 19 0 22 -7 27 -77 6 -84 24
-138 64 -192 23 -30 29 -33 65 -28 51 7 73 -16 89 -92 22 -104 -19 -287 -76
-345 -10 -10 -22 -41 -26 -69 -8 -53 -11 -56 -93 -125 -37 -31 -22 -51 24 -32
39 16 44 11 32 -34 -6 -21 -7 -36 -1 -36 5 0 38 18 74 40 70 43 84 47 103 28
9 -9 16 -8 29 4 17 15 485 138 525 138 10 0 24 12 30 26 11 23 15 25 52 18 23
-3 49 -10 58 -15 20 -11 34 -48 21 -58 -4 -5 -66 -13 -138 -19 -245 -20 -396
-103 -591 -326 l-61 -68 -31 16 c-46 24 -144 118 -233 225 -328 392 -489 825
-489 1311 0 236 31 424 106 649 59 176 128 316 235 476 121 181 346 425 392
425 5 0 5 -6 1 -12z m1512 -50 c31 -21 50 -42 52 -56 8 -52 -139 -232 -188
-232 -28 1 -90 73 -90 106 0 10 29 62 65 116 76 113 85 117 161 66z m1563 3
c9 -16 6 -20 -17 -25 -15 -4 -78 -30 -141 -57 -108 -48 -114 -49 -132 -33 -40
36 -26 51 79 83 189 58 197 59 211 32z m-3000 -86 c-21 -65 -21 -71 -6 -112
l16 -43 -54 0 c-30 0 -55 4 -55 8 0 30 67 187 93 220 24 30 27 -8 6 -73z m351
-45 c69 -23 215 -75 325 -115 257 -94 338 -118 367 -110 13 4 44 28 70 52 51
50 68 51 92 5 14 -28 14 -30 -31 -81 -49 -56 -88 -81 -128 -81 -14 0 -83 22
-153 49 -178 68 -437 163 -566 207 -118 41 -146 60 -146 100 0 31 -7 32 170
-26z m1832 6 c15 -16 47 -29 95 -39 73 -16 123 -40 123 -60 0 -9 -69 -5 -148
9 -28 6 -34 3 -39 -15 -7 -28 -29 -27 -49 5 -12 18 -24 24 -43 22 -22 -3 -26
-9 -29 -40 l-3 -38 -49 25 c-27 14 -52 25 -56 25 -4 0 -4 -18 0 -41 6 -39 5
-40 -16 -34 -13 4 -35 19 -50 33 -27 25 -28 25 -70 9 -24 -8 -60 -18 -82 -22
-50 -8 -45 13 10 38 101 46 109 52 112 80 l3 27 30 -21 c38 -27 61 -21 73 19
10 37 25 40 51 12 26 -29 73 -27 85 5 12 31 23 31 52 1z m491 -35 c26 -45 21
-73 -20 -113 -21 -20 -48 -41 -60 -47 -20 -10 -24 -7 -47 42 -14 28 -29 73
-32 99 l-7 47 39 6 c22 4 44 8 49 9 22 6 62 -16 78 -43z m-1048 -136 c30 -38
55 -79 55 -91 0 -28 -53 -74 -85 -74 -26 0 -96 55 -138 109 l-27 34 22 31 c12
17 32 43 46 58 22 24 28 26 48 15 13 -7 49 -44 79 -82z m1244 3 c37 -39 150
-234 210 -360 119 -249 166 -456 178 -773 6 -180 -5 -316 -42 -502 -24 -117
-65 -233 -82 -233 -4 1 -66 31 -138 68 -90 46 -134 75 -142 92 -7 14 -22 45
-33 70 -18 38 -30 49 -79 72 -50 24 -59 32 -69 66 -7 22 -12 52 -12 68 0 51
-33 89 -104 123 -67 31 -76 44 -56 82 9 17 22 19 101 19 82 0 92 2 114 25 46
45 35 68 -65 132 -62 41 -89 64 -90 78 0 37 31 170 43 183 7 6 58 21 112 31
55 11 141 30 190 44 50 13 108 29 129 33 42 9 51 20 37 42 -6 11 -17 11 -51 2
-23 -6 -44 -9 -47 -7 -11 11 19 46 48 56 35 12 39 49 4 42 -45 -10 -69 -6 -73
12 -2 12 6 21 27 28 17 6 31 18 31 26 0 9 -6 13 -14 10 -37 -15 -138 -29 -168
-24 -73 13 -135 26 -164 37 l-31 11 -6 102 c-4 56 -12 120 -18 142 l-11 40 58
52 c60 54 170 133 185 133 4 0 17 -10 28 -22z m-2659 -43 c58 -8 126 -15 151
-15 25 0 54 -6 65 -14 18 -14 18 -15 1 -22 -11 -4 -65 -3 -120 1 -56 4 -183
11 -282 14 -151 5 -180 8 -180 21 0 42 139 47 365 15z m2213 -13 c30 -33 48
-105 57 -232 10 -122 7 -177 -12 -212 -17 -34 -28 -18 -28 40 0 76 -16 168
-46 272 -30 104 -32 150 -6 150 11 0 26 -8 35 -18z m-989 -124 c-4 -7 -22 -32
-41 -55 -18 -23 -33 -44 -33 -48 0 -3 11 -21 25 -40 27 -35 49 -95 35 -95 -4
0 -31 21 -60 47 l-52 47 -18 -22 c-37 -45 -69 -13 -35 35 14 20 14 25 -2 57
-21 44 -14 52 26 32 30 -16 31 -16 62 19 25 27 40 35 66 35 25 0 32 -4 27 -12z
m376 -78 c49 -72 90 -154 90 -180 0 -19 -33 -40 -63 -40 -7 0 -36 35 -65 78
-28 42 -68 98 -88 124 l-35 47 42 31 c41 29 43 29 62 13 11 -10 36 -43 57 -73z
m-1281 54 c41 -8 35 -28 -10 -31 -118 -9 -236 -29 -314 -53 -132 -41 -154 -43
-198 -20 l-38 20 -15 -35 c-18 -44 -12 -68 29 -115 l30 -34 -24 -7 c-13 -4
-66 -7 -118 -8 -75 -1 -98 2 -113 16 -24 22 -23 33 13 135 30 84 33 88 73 103
22 8 75 19 116 24 89 10 524 14 569 5z m361 -70 c41 -14 97 -37 124 -52 54
-29 112 -100 122 -148 5 -27 2 -31 -40 -51 -43 -21 -47 -22 -83 -6 -27 11 -54
14 -94 9 l-56 -5 -32 62 -32 62 50 3 c28 2 51 7 51 11 0 18 -44 62 -84 86 -24
14 -52 35 -62 47 l-19 21 40 -7 c22 -4 74 -19 115 -32z m-1735 -9 c50 -49 23
-125 -45 -125 -83 0 -99 114 -20 143 28 10 41 7 65 -18z m4229 4 c53 -41 23
-133 -43 -131 -81 2 -99 100 -26 140 29 16 39 15 69 -9z m-1218 -63 c62 -29
83 -50 118 -121 27 -55 34 -95 16 -95 -5 0 -27 26 -49 58 -47 68 -70 91 -135
129 -27 16 -51 34 -54 41 -6 20 49 14 104 -12z m-1678 -27 c49 -24 69 -42 101
-89 58 -88 76 -148 76 -260 0 -82 -4 -103 -26 -151 -51 -109 -153 -179 -260
-179 -108 0 -232 88 -295 211 -22 43 -28 71 -32 139 -8 156 51 261 181 325 97
47 167 48 255 4z m841 -95 c30 -38 43 -116 39 -244 -2 -93 -6 -115 -18 -115
-11 0 -17 25 -26 115 -7 63 -21 150 -32 193 -19 74 -19 77 -2 77 10 0 28 -12
39 -26z m-567 -44 c14 -11 33 -35 42 -54 19 -41 22 -106 4 -106 -27 0 -38 -18
-43 -66 -6 -52 -22 -94 -37 -94 -5 0 -6 37 -3 83 6 71 4 92 -19 161 -14 44
-23 83 -20 88 9 15 51 8 76 -12z m1343 -24 c136 -62 204 -192 192 -366 -5 -85
-41 -187 -90 -260 -38 -56 -158 -176 -214 -213 -97 -66 -245 -101 -260 -62 -8
22 0 27 59 36 51 8 98 33 105 56 2 6 -11 14 -29 18 -54 12 -146 65 -184 108
-78 86 -117 225 -97 344 16 93 73 202 142 273 46 47 69 62 122 79 81 27 179
22 254 -13z m-2116 -34 c12 -22 -4 -102 -22 -114 -16 -11 -158 1 -174 14 -14
11 -17 66 -5 85 13 21 55 32 124 32 55 1 69 -2 77 -17z m2806 -7 c71 -19 79
-26 70 -55 -6 -18 -12 -21 -33 -15 -15 3 -60 12 -101 20 -81 16 -101 27 -101
58 0 18 4 19 53 14 28 -4 79 -14 112 -22z m-1604 -17 c7 -12 12 -55 13 -96 1
-74 1 -75 -28 -85 -55 -19 -104 46 -90 121 13 71 79 109 105 60z m-173 -24
c66 -75 -25 -205 -104 -149 -28 19 -46 65 -42 106 2 25 12 39 38 57 41 27 74
23 108 -14z m-1058 -163 c14 -10 46 -56 71 -102 76 -136 184 -222 298 -236 56
-6 57 -7 36 -43 -17 -30 -19 -83 -5 -111 16 -28 55 -45 150 -63 62 -11 96 -24
128 -47 24 -17 45 -30 47 -28 2 2 1 16 -2 32 -8 43 -53 83 -113 101 -68 20
-100 41 -100 66 0 55 134 142 300 195 99 31 112 37 118 53 2 8 -11 12 -42 12
-53 0 -57 10 -18 40 22 18 36 21 77 17 94 -10 206 -63 285 -137 l38 -35 -7
-100 c-8 -100 -8 -100 -66 -195 -76 -124 -116 -211 -123 -266 -6 -58 17 -60
42 -3 19 43 85 119 104 119 7 0 10 -11 7 -27 -3 -16 -12 -95 -19 -176 -11
-113 -19 -153 -32 -168 -24 -27 -289 -193 -390 -245 -78 -40 -134 -55 -134
-36 0 4 11 53 25 110 25 105 31 157 18 165 -5 3 -28 -28 -52 -69 -25 -41 -49
-74 -54 -74 -5 0 -7 20 -5 45 3 49 -5 57 -23 23 -7 -13 -23 -38 -37 -56 -31
-40 -41 -29 -34 36 l5 47 -58 -62 c-31 -35 -60 -63 -65 -63 -5 0 -4 16 2 36 5
20 7 39 3 42 -3 3 -31 -19 -62 -49 l-56 -54 6 38 c5 33 4 36 -12 28 -10 -6
-34 -28 -54 -51 -35 -38 -37 -39 -37 -16 0 14 5 37 10 51 8 21 7 26 -2 22 -52
-21 -49 -24 -42 39 4 33 11 67 16 77 5 10 39 32 76 50 86 42 91 57 18 57 -66
0 -100 14 -115 47 -10 22 -8 25 26 41 28 12 67 16 148 16 128 -1 206 -18 347
-74 153 -62 239 -53 312 31 79 93 66 243 -27 299 -49 30 -58 26 -51 -19 11
-68 -34 -111 -116 -111 -56 0 -72 10 -170 105 -72 70 -97 87 -167 115 l-83 34
3 70 2 71 -45 23 c-38 20 -56 23 -112 19 -70 -4 -131 -31 -136 -58 -3 -14 4
-14 68 -1 64 14 73 14 105 -1 42 -20 53 -53 30 -97 l-16 -31 -167 3 c-163 3
-167 2 -170 -18 -2 -17 -23 -28 -111 -57 -130 -44 -155 -46 -177 -12 -24 37
-14 122 33 285 69 236 94 270 201 270 56 0 63 7 32 35 -11 10 -20 24 -20 31 0
28 98 24 140 -5z m1474 -289 c20 -116 44 -197 93 -312 63 -148 122 -218 206
-246 39 -13 46 -18 36 -30 -17 -20 -76 -17 -126 7 -44 21 -118 100 -146 155
-33 65 -68 170 -87 265 -24 115 -27 259 -7 259 9 0 19 -32 31 -98z m937 -112
c-12 -37 -21 -73 -21 -78 0 -6 16 -16 35 -23 54 -20 42 -46 -36 -81 -20 -9
-67 -43 -105 -76 -71 -61 -112 -87 -121 -79 -8 8 55 96 111 155 40 43 48 57
40 70 -8 12 3 43 50 136 60 118 61 120 64 82 2 -21 -6 -69 -17 -106z m-3402
35 c31 -16 41 -33 41 -71 0 -30 -41 -74 -70 -74 -32 0 -70 44 -70 80 0 19 9
40 25 55 28 29 36 30 74 10z m4591 -9 c29 -32 29 -74 0 -98 -46 -37 -120 -13
-120 39 0 27 17 64 34 75 23 15 63 7 86 -16z m-1185 -351 c-8 -26 -13 -50 -11
-52 2 -3 27 2 55 11 53 16 81 13 81 -8 0 -20 -21 -40 -95 -91 -72 -50 -145
-113 -145 -127 0 -4 61 24 135 62 74 39 147 70 162 70 53 0 85 -30 99 -90 6
-30 17 -69 25 -87 17 -42 16 -43 -201 -206 -437 -329 -656 -519 -917 -800 -86
-92 -160 -164 -164 -160 -10 10 12 108 34 148 9 17 72 88 140 159 68 71 132
141 141 157 l17 29 -26 -10 c-15 -6 -35 -15 -46 -20 -27 -15 -24 -7 17 50 39
54 38 61 -4 31 -15 -10 -38 -24 -52 -31 -24 -13 -24 -12 -10 6 8 10 34 43 58
72 24 28 39 52 34 52 -5 0 -38 -22 -72 -50 -62 -50 -80 -59 -80 -41 0 5 64 72
141 149 78 76 140 144 138 150 -2 6 -41 -16 -86 -48 -46 -33 -83 -56 -83 -52
0 14 114 182 168 248 27 34 53 71 57 83 6 19 3 21 -36 21 -39 0 -48 -6 -148
-102 -116 -113 -222 -176 -195 -117 8 18 270 264 309 289 40 27 48 25 40 -9
-6 -27 -4 -28 36 -34 l43 -6 196 189 c169 163 246 228 257 217 1 -2 -4 -25
-12 -52z m-2475 8 c0 -21 12 -65 25 -98 30 -72 30 -71 6 -78 -44 -11 -81 44
-81 123 0 57 13 90 35 90 11 0 15 -11 15 -37z m1456 -38 c3 -14 4 -105 1 -203
-3 -134 -11 -207 -30 -302 -14 -69 -28 -142 -31 -162 l-7 -37 48 5 48 6 28
-56 c32 -67 33 -86 8 -117 l-20 -24 -26 58 c-28 60 -35 64 -93 48 l-32 -10 -2
42 c-3 79 4 142 28 267 13 69 29 197 34 285 12 187 18 225 30 225 5 0 12 -11
16 -25z m624 -37 c0 -21 -134 -145 -214 -196 -129 -85 -211 -78 -262 20 -27
52 -18 57 42 26 67 -33 87 -34 152 -10 44 17 83 42 221 139 50 35 61 39 61 21z
m-1070 -63 c0 -65 -87 -122 -168 -111 -43 6 -82 29 -82 48 0 6 23 7 54 3 58
-8 112 12 150 54 22 25 46 28 46 6z m-1735 -282 c39 -117 148 -336 225 -452
221 -336 538 -613 889 -777 995 -465 2159 -137 2761 777 72 109 186 338 227
456 l28 83 138 0 c75 0 137 -1 137 -3 0 -9 -82 -242 -105 -296 -191 -460 -556
-881 -985 -1138 -296 -177 -613 -287 -960 -334 -122 -17 -488 -17 -610 0 -575
78 -1066 326 -1463 741 -246 257 -426 553 -541 889 -25 73 -46 135 -46 137 0
2 62 4 138 4 l137 0 30 -87z m3795 -132 c20 -6 45 -17 55 -25 29 -21 12 -48
-114 -189 -101 -114 -193 -199 -284 -264 -44 -31 -59 -24 -30 15 30 41 97 142
124 187 l23 40 -59 -50 c-162 -138 -172 -139 -85 -10 27 41 50 77 50 80 0 3
-25 -13 -55 -36 -31 -23 -57 -40 -60 -38 -2 3 16 38 40 79 24 41 41 77 40 79
-7 7 -81 -44 -150 -104 -146 -126 -165 -139 -165 -112 0 37 293 310 375 349
34 16 57 18 150 15 61 -3 126 -10 145 -16z m-2010 -60 c5 -11 10 -33 10 -49
l0 -29 -78 -7 c-75 -7 -112 -2 -112 14 0 4 11 10 23 14 13 3 41 21 61 41 42
39 80 45 96 16z m210 -321 c0 -46 -2 -51 -47 -87 -80 -65 -128 -111 -122 -117
3 -4 26 1 50 10 24 9 57 20 72 24 l28 9 -36 -41 c-37 -40 -37 -53 0 -60 15 -2
21 -12 23 -38 6 -56 -17 -186 -43 -244 -14 -32 -27 -85 -31 -129 -7 -78 -15
-104 -31 -94 -5 3 -44 75 -87 159 -94 188 -110 253 -83 354 22 87 58 145 122
199 54 46 150 104 173 105 8 0 12 -16 12 -50z m-620 -38 c0 -5 -14 -21 -31
-38 -32 -30 -120 -155 -132 -186 -11 -32 7 -20 109 68 118 103 214 154 287
154 l49 0 -7 -32 c-4 -18 -17 -57 -30 -86 -60 -131 -55 -250 19 -464 l44 -128
-33 0 c-51 0 -94 20 -110 50 -28 54 -41 215 -32 380 4 77 -20 39 -50 -80 -18
-69 -32 -128 -32 -132 -1 -5 -8 -8 -16 -8 -16 0 -23 23 -27 85 -5 73 -23 42
-26 -45 -4 -122 -32 -137 -56 -30 -15 64 -30 69 -34 10 -4 -73 -10 -90 -30
-83 -9 3 -24 15 -33 26 -13 16 -19 17 -35 7 -23 -14 -59 1 -171 72 -57 36 -62
42 -57 66 15 66 146 224 255 308 89 68 179 111 179 86z m1368 -122 c17 0 -6
-43 -65 -124 -95 -128 -168 -277 -194 -391 -15 -66 -40 -85 -114 -85 -44 0
-45 1 -39 28 16 65 103 206 236 383 36 47 77 112 92 143 24 50 31 57 49 52 12
-3 28 -6 35 -6z m7 -197 c-4 -21 -11 -60 -16 -86 -5 -26 -9 -77 -9 -111 0 -49
-5 -69 -20 -87 l-20 -24 -21 25 c-18 21 -20 33 -15 80 5 53 42 175 65 219 7
11 18 21 27 21 12 0 14 -8 9 -37z m69 -109 c9 -3 16 -15 16 -25 0 -14 -7 -19
-30 -19 -25 0 -30 4 -30 25 0 25 13 31 44 19z m-749 -148 c16 -11 18 -25 17
-87 -3 -101 -15 -129 -58 -129 -18 0 -44 4 -58 10 -26 10 -26 10 -20 97 4 49
11 96 16 106 11 21 75 23 103 3z" />
    <path
      d="M2348 5081 c-51 -11 -97 -48 -156 -128 -95 -128 -149 -273 -124 -328
16 -35 51 -50 303 -125 283 -85 331 -95 369 -75 45 23 102 96 163 207 91 166
87 223 -24 300 -131 90 -420 171 -531 149z m214 -101 c21 -6 45 -18 55 -28 16
-16 11 -17 -78 -22 -111 -7 -159 -28 -213 -93 -38 -46 -75 -121 -76 -149 0
-21 -30 -24 -48 -6 -29 29 2 124 72 223 63 87 82 97 176 91 41 -3 92 -10 112
-16z m183 -74 c35 -15 46 -40 22 -49 -20 -7 -74 19 -87 42 -9 18 -8 21 10 21
11 0 36 -7 55 -14z" />
    <path
      d="M1982 3859 c-132 -66 -177 -236 -103 -394 51 -111 117 -165 199 -165
46 0 58 11 42 39 -9 17 -6 23 15 37 13 9 36 40 51 70 24 49 26 63 22 137 -5
97 -21 132 -89 198 -44 43 -47 48 -29 54 24 8 26 30 4 39 -30 11 -69 6 -112
-15z m93 -115 c15 -15 14 -18 -1 -43 -9 -14 -25 -35 -34 -46 -31 -36 -32 -60
-5 -140 15 -42 24 -83 21 -91 -8 -20 -50 -17 -77 6 -23 19 -23 21 -6 34 17 13
17 18 1 96 -9 44 -13 96 -10 115 14 71 72 107 111 69z" />
    <path d="M3755 3416 c-29 -43 -19 -116 15 -116 41 0 75 94 45 123 -23 23 -42
21 -60 -7z" />
    <path
      d="M3956 3375 c-11 -8 -32 -15 -48 -15 -21 0 -31 -8 -44 -31 -17 -35
-92 -119 -105 -119 -4 0 -34 -18 -67 -41 -51 -35 -69 -42 -126 -46 -53 -5 -66
-9 -66 -22 0 -26 20 -47 75 -75 54 -28 139 -36 148 -13 2 7 26 18 53 25 68 18
103 48 150 128 63 109 87 169 80 198 -7 29 -22 32 -50 11z" />
    <path d="M4075 6270 c3 -5 15 -10 26 -10 10 0 19 5 19 10 0 6 -12 10 -26 10
-14 0 -23 -4 -19 -10z" />
    <path
      d="M5865 6058 c4 -123 9 -449 11 -725 l3 -502 29 -52 30 -51 6 73 c22
292 23 814 1 1183 -9 149 -18 277 -20 284 -3 6 -19 12 -36 12 l-32 0 8 -222z" />
    <path
      d="M3 5495 c3 -49 12 -90 32 -135 30 -68 37 -143 22 -225 -7 -38 -5 -36
26 25 34 64 61 85 78 58 11 -17 11 -117 -1 -197 -5 -36 -6 -69 -3 -74 11 -17
42 56 49 115 9 78 23 96 60 80 24 -11 30 -11 46 6 19 19 19 19 -10 38 -58 36
-177 152 -215 207 -22 31 -50 82 -63 114 l-25 58 4 -70z" />
    <path d="M616 5504 c-4 -9 -4 -19 -1 -22 2 -3 7 3 11 12 4 9 4 19 1 22 -2 3
-7 -3 -11 -12z" />
  </g>
</svg>